HIERARCHY
ROOT joint_Root
{
	OFFSET 0.0 0.0 0.0
	CHANNELS 6 Xposition Yposition Zposition Zrotation Xrotation Yrotation 
	JOINT Hips
	{
		OFFSET -0.726466 93.3139 -2.00062
		CHANNELS 6 Xposition Yposition Zposition Zrotation Xrotation Yrotation 
		JOINT Spine
		{
			OFFSET 15.7357 0.0 0.0
			CHANNELS 6 Xposition Yposition Zposition Zrotation Xrotation Yrotation 
			JOINT Chest
			{
				OFFSET 8.98455 -0.406207 0.0
				CHANNELS 6 Xposition Yposition Zposition Zrotation Xrotation Yrotation 
				JOINT Neck
				{
					OFFSET 16.3773 0.0 0.0
					CHANNELS 6 Xposition Yposition Zposition Zrotation Xrotation Yrotation 
					JOINT Head
					{
						OFFSET 6.45672 0.0 0.0
						CHANNELS 6 Xposition Yposition Zposition Zrotation Xrotation Yrotation 
						End Site
						{
							OFFSET 0.0 0.0 0.0
						}
					}
				}
				JOINT Shoulder_L
				{
					OFFSET 12.9942 -0.242716 4.98039
					CHANNELS 6 Xposition Yposition Zposition Zrotation Xrotation Yrotation 
					JOINT UpperArm_L
					{
						OFFSET 5.34809 0.0 0.0
						CHANNELS 6 Xposition Yposition Zposition Zrotation Xrotation Yrotation 
						JOINT LowerArm_L
						{
							OFFSET 24.3286 1.87007e-05 0.0
							CHANNELS 6 Xposition Yposition Zposition Zrotation Xrotation Yrotation 
							JOINT Hand_L
							{
								OFFSET 22.2916 0.0 0.0
								CHANNELS 6 Xposition Yposition Zposition Zrotation Xrotation Yrotation 
								End Site
								{
									OFFSET 0.0 0.0 0.0
								}
							}
						}
					}
				}
				JOINT Shoulder_R
				{
					OFFSET 12.9945 -0.242716 -4.98039
					CHANNELS 6 Xposition Yposition Zposition Zrotation Xrotation Yrotation 
					JOINT UpperArm_R
					{
						OFFSET -5.34813 0.0 0.0
						CHANNELS 6 Xposition Yposition Zposition Zrotation Xrotation Yrotation 
						JOINT LowerArm_R
						{
							OFFSET -24.3289 0.000322201 0.0
							CHANNELS 6 Xposition Yposition Zposition Zrotation Xrotation Yrotation 
							JOINT Hand_R
							{
								OFFSET -22.2915 -0.000108084 0.0
								CHANNELS 6 Xposition Yposition Zposition Zrotation Xrotation Yrotation 
								End Site
								{
									OFFSET 0.0 0.0 0.0
								}
							}
						}
					}
				}
			}
		}
		JOINT UpperLeg_L
		{
			OFFSET -2.19248 -6.46944 0.0
			CHANNELS 6 Xposition Yposition Zposition Zrotation Xrotation Yrotation 
			JOINT LowerLeg_L
			{
				OFFSET 39.0811 0.0 -1.23785e-05
				CHANNELS 6 Xposition Yposition Zposition Zrotation Xrotation Yrotation 
				JOINT Foot_L
				{
					OFFSET 40.9854 0.0 -1.26872e-05
					CHANNELS 6 Xposition Yposition Zposition Zrotation Xrotation Yrotation 
					JOINT Toes_L
					{
						OFFSET 11.7543 0.0 0.0
						CHANNELS 6 Xposition Yposition Zposition Zrotation Xrotation Yrotation 
						End Site
						{
							OFFSET 0.0 0.0 0.0
						}
					}
				}
			}
		}
		JOINT UpperLeg_R
		{
			OFFSET -2.19251 6.46944 0.0
			CHANNELS 6 Xposition Yposition Zposition Zrotation Xrotation Yrotation 
			JOINT LowerLeg_R
			{
				OFFSET -39.0811 -0.00228153 -0.0401928
				CHANNELS 6 Xposition Yposition Zposition Zrotation Xrotation Yrotation 
				JOINT Foot_R
				{
					OFFSET -40.9854 0.0 0.0
					CHANNELS 6 Xposition Yposition Zposition Zrotation Xrotation Yrotation 
					JOINT Toes_R
					{
						OFFSET -11.7543 0.0 0.0
						CHANNELS 6 Xposition Yposition Zposition Zrotation Xrotation Yrotation 
						End Site
						{
							OFFSET 0.0 0.0 0.0
						}
					}
				}
			}
		}
	}
}
MOTION
Frames:	4
Frame Time:	0.0333333
0.000000 0.000000 0.000000 0.000000 0.000000 -0.000000 -0.554886 92.101000 0.337397 88.134800 -0.946968 4.842060 15.735700 0.000005 -0.000001 82.528300 86.336200 -82.077600 8.984550 -0.406207 -0.000000 -0.496539 -0.985143 0.896785 16.377300 -0.000001 -0.000001 3.050900 -2.370310 0.898320 6.456720 -0.000001 -0.000000 5.783010 -2.808180 -0.862182 12.994200 -0.242716 4.980390 -87.391300 -7.198080 -70.017200 5.348090 -0.000007 -0.000001 -73.424200 -35.082400 -72.794400 24.328600 0.000019 0.000005 4.782620 0.867686 -79.729700 22.291600 -0.000001 0.000005 50.416600 5.613760 -12.211500 12.994500 -0.242716 -4.980390 90.884900 -2.577860 -71.046100 -5.348130 -0.000001 -0.000004 -65.561100 -34.092200 -78.915000 -24.328900 0.000322 -0.000009 11.441500 2.578190 -77.469300 -22.291500 -0.000108 -0.000004 51.847300 5.233940 1.845280 -2.192480 -6.469440 -0.000000 -175.519000 -7.176050 -1.080470 39.081100 -0.000007 -0.000012 -0.110921 0.256510 23.384800 40.985400 -0.000006 -0.000013 -0.256947 2.739060 -67.611500 11.754300 -0.000000 0.000003 -0.000049 -0.000554 -16.599100 -2.192510 6.469440 -0.000001 178.969000 15.372100 -177.754000 -39.081100 -0.002282 -0.040193 0.001365 0.005460 19.722100 -40.985400 0.000008 0.000006 4.557380 6.245620 -67.572300 -11.754300 -0.000006 -0.000006 -0.005002 -0.061487 -19.074900
0.000000 0.000000 0.000000 0.000000 0.000000 -0.000000 -0.551692 92.087200 0.318160 88.144500 -1.021570 5.092610 15.735700 0.000005 -0.000001 82.519900 86.319200 -82.060100 8.984550 -0.406207 -0.000000 -0.462913 -0.991144 0.915177 16.377300 -0.000001 -0.000001 3.163060 -2.383540 0.850515 6.456720 -0.000001 -0.000000 6.219660 -2.819840 -0.898697 12.994200 -0.242716 4.980390 -87.383100 -7.208940 -69.987000 5.348090 -0.000007 -0.000001 -64.943800 -33.134600 -70.226300 24.328600 0.000019 0.000005 8.185040 1.119690 -82.254700 22.291600 -0.000001 0.000005 46.896000 5.627270 -13.175900 12.994500 -0.242716 -4.980390 90.848400 -2.462870 -70.985100 -5.348130 -0.000001 -0.000004 -55.570700 -32.408600 -76.015300 -24.328900 0.000322 -0.000009 12.415500 2.150730 -80.327200 -22.291500 -0.000108 -0.000004 50.284300 5.317460 -0.449757 -2.192480 -6.469440 -0.000000 -175.487000 -7.230850 -0.864973 39.081100 -0.000007 -0.000012 -0.113224 0.260794 23.468200 40.985400 -0.000006 -0.000013 -0.256606 2.736140 -67.652600 11.754300 -0.000000 0.000003 -0.000046 -0.000521 -16.597800 -2.192510 6.469440 -0.000001 178.880000 15.358300 -177.570000 -39.081100 -0.002282 -0.040193 -0.000020 0.009255 19.852500 -40.985400 0.000008 0.000006 4.558890 6.315600 -67.627600 -11.754300 -0.000006 -0.000006 -0.005096 -0.062394 -19.111800
0.000000 0.000000 0.000000 0.000000 0.000000 -0.000000 -0.562070 92.081200 0.264065 88.135500 -1.049840 5.278660 15.735700 0.000005 -0.000001 82.141200 86.295000 -81.656100 8.984550 -0.406207 -0.000000 -0.420941 -1.047610 0.965817 16.377300 -0.000001 -0.000001 3.172710 -2.382220 0.836154 6.456720 -0.000001 -0.000000 6.478690 -2.765010 -1.047720 12.994200 -0.242716 4.980390 -87.351500 -7.268960 -69.917400 5.348090 -0.000007 -0.000001 -58.070000 -31.528000 -68.515900 24.328600 0.000019 0.000005 14.224400 1.509550 -84.063100 22.291600 -0.000001 0.000005 43.510700 5.657880 -15.949300 12.994500 -0.242716 -4.980390 90.834600 -2.415680 -70.933200 -5.348130 -0.000001 -0.000004 -45.535200 -30.951400 -73.280600 -24.328900 0.000322 -0.000009 13.755100 1.728920 -82.970900 -22.291500 -0.000108 -0.000004 46.605700 5.420840 -3.668300 -2.192480 -6.469440 -0.000000 -175.459000 -7.187320 -0.746623 39.081100 -0.000007 -0.000012 -0.113014 0.259394 23.542100 40.985400 -0.000006 -0.000013 -0.269764 2.690860 -67.656900 11.754300 -0.000000 0.000003 -0.000050 -0.000569 -16.599700 -2.192510 6.469440 -0.000001 178.840000 15.362800 -177.447000 -39.081100 -0.002282 -0.040193 -0.001349 0.012888 19.921300 -40.985400 0.000008 0.000006 4.505520 6.365970 -67.621000 -11.754300 -0.000006 -0.000006 -0.004914 -0.060629 -19.039900
0.000000 0.000000 0.000000 0.000000 0.000000 -0.000000 -0.564049 92.079900 0.179074 88.114000 -1.078720 5.350160 15.735700 0.000005 -0.000001 81.964800 86.268400 -81.461600 8.984550 -0.406207 -0.000000 -0.371038 -1.078710 1.002390 16.377300 -0.000001 -0.000001 3.089560 -2.371270 0.839373 6.456720 -0.000001 -0.000000 6.456080 -2.688030 -1.114330 12.994200 -0.242716 4.980390 -87.330800 -7.316870 -69.894500 5.348090 -0.000007 -0.000001 -54.117000 -30.523900 -67.812500 24.328600 0.000019 0.000005 24.744600 2.423150 -84.760500 22.291600 -0.000001 0.000005 45.135000 5.685110 -20.802200 12.994500 -0.242716 -4.980390 90.816200 -2.358500 -70.904900 -5.348130 -0.000001 -0.000004 -37.790000 -29.906100 -71.295000 -24.328900 0.000322 -0.000009 18.482400 1.767260 -84.728700 -22.291500 -0.000108 -0.000004 44.608500 5.518540 -7.294280 -2.192480 -6.469440 -0.000000 -175.429000 -7.241090 -0.785678 39.081100 -0.000007 -0.000012 -0.112593 0.257312 23.633100 40.985400 -0.000006 -0.000013 -0.259955 2.705980 -67.634200 11.754300 -0.000000 0.000003 -0.000050 -0.000569 -16.599600 -2.192510 6.469440 -0.000001 178.866000 15.317400 -177.479000 -39.081100 -0.002282 -0.040193 -0.002394 0.015706 19.997300 -40.985400 0.000008 0.000006 4.516220 6.340910 -67.594900 -11.754300 -0.000006 -0.000006 -0.005039 -0.061847 -19.089500
